<svg xmlns="http://www.w3.org/2000/svg" viewBox="0 0 420 280" role="img">
  <defs><linearGradient id="a" x1="0" y1="0" x2="1" y2="1"><stop stop-color="#818cf8"/><stop offset="1" stop-color="#c084fc"/></linearGradient></defs>
  <circle cx="235" cy="135" r="105" fill="url(#a)" opacity=".13"/>
  <path d="M210 38l13 31 31 13-31 13-13 31-13-31-31-13 31-13zM325 128l8 19 19 8-19 8-8 19-8-19-19-8 19-8z" fill="#fff" opacity=".8"/>
  <g fill="none" stroke="#fff" stroke-width="6" opacity=".72"><rect x="85" y="105" width="92" height="132" rx="12"/><rect x="196" y="91" width="104" height="146" rx="12"/><path d="M112 137h38m-38 20h38m111-36v77m-25-54h50"/></g>
</svg>
