<svg xmlns="http://www.w3.org/2000/svg" width="250" height="205" viewBox="0 0 250 205" role="img" aria-labelledby="title">
  <title id="title">StefARR by PaintedClouds</title>
  <defs>
    <linearGradient id="stefarr-gradient" x1="12" y1="8" x2="86" y2="90" gradientUnits="userSpaceOnUse">
      <stop stop-color="#c084fc"/>
      <stop offset="0.52" stop-color="#6366f1"/>
      <stop offset="1" stop-color="#06b6d4"/>
    </linearGradient>
  </defs>
  <g transform="translate(77 4)">
    <rect width="96" height="96" rx="29" fill="#111827"/>
    <path d="M21 61h47.5a13.5 13.5 0 0 0 1.7-26.9A23.5 23.5 0 0 0 27.7 40 10.7 10.7 0 0 0 21 61Z" fill="url(#stefarr-gradient)"/>
    <path d="M27 53c3.8-6.5 9.4-9.7 16.8-9.7 6.1 0 10.2-2 12.2-6.1M50.7 32.6l5.6 4.5 4.5-5.6" fill="none" stroke="#fff" stroke-width="5.4" stroke-linecap="round" stroke-linejoin="round"/>
    <circle cx="29" cy="53" r="3" fill="#fff"/>
  </g>
  <text x="125" y="154" text-anchor="middle" fill="#fff" font-family="Inter, Arial, sans-serif" font-size="47" font-weight="800" letter-spacing="-1.7">StefARR</text>
  <text x="125" y="181" text-anchor="middle" fill="#a5b4fc" font-family="Inter, Arial, sans-serif" font-size="12.5" font-weight="700" letter-spacing="2">BY PAINTEDCLOUDS</text>
</svg>
