<svg xmlns="http://www.w3.org/2000/svg" width="96" height="96" viewBox="0 0 96 96" role="img" aria-labelledby="title">
  <title id="title">StefARR</title>
  <defs>
    <linearGradient id="stefarr-gradient" x1="12" y1="8" x2="86" y2="90" gradientUnits="userSpaceOnUse">
      <stop stop-color="#c084fc"/>
      <stop offset="0.52" stop-color="#6366f1"/>
      <stop offset="1" stop-color="#06b6d4"/>
    </linearGradient>
    <filter id="shadow" x="-20%" y="-20%" width="140%" height="140%">
      <feDropShadow dx="0" dy="5" stdDeviation="5" flood-color="#020617" flood-opacity="0.3"/>
    </filter>
  </defs>
  <rect x="4" y="4" width="88" height="88" rx="27" fill="#111827"/>
  <path d="M25 65h43.5a13.5 13.5 0 0 0 1.7-26.9A23.5 23.5 0 0 0 27.7 44 10.7 10.7 0 0 0 25 65Z" fill="url(#stefarr-gradient)" filter="url(#shadow)"/>
  <path d="M31 57c3.8-6.5 9.4-9.7 16.8-9.7 6.1 0 10.2-2 12.2-6.1M54.7 36.6l5.6 4.5 4.5-5.6" fill="none" stroke="#fff" stroke-width="5.4" stroke-linecap="round" stroke-linejoin="round"/>
  <circle cx="33" cy="57" r="3" fill="#fff"/>
</svg>
